<?xml version="1.0" encoding="UTF-8"?>
<svg id="Layer_2" data-name="Layer 2" xmlns="http://www.w3.org/2000/svg" viewBox="0 0 1486.87 682.28">
  <defs>
    <style>
      .cls-1 {
        fill: #fd1111;
      }

      .cls-1, .cls-2 {
        stroke-width: 0px;
      }

      .cls-2 {
        fill: #fff;
      }
    </style>
  </defs>
  <g id="Layer_1-2" data-name="Layer 1">
    <g>
      <circle class="cls-1" cx="1145.73" cy="341.14" r="341.14"/>
      <path class="cls-2" d="M102.54,360.64c-4.13-3.53-8.82-6.38-14.07-8.56-5.26-2.17-10.62-4.05-16.09-5.63-5.48-1.58-10.84-3-16.09-4.27-5.26-1.28-9.94-2.78-14.07-4.5-4.13-1.72-7.43-3.86-9.9-6.42-2.48-2.55-3.71-5.78-3.71-9.68,0-4.8,2.1-8.85,6.3-12.16,4.2-3.3,11.03-4.95,20.49-4.95,7.05,0,13.99,1.2,20.82,3.6,6.83,2.4,13.84,6.45,21.05,12.15l16.43-20.48c-7.2-6.15-15.72-11.22-25.55-15.2-9.83-3.97-20.82-5.96-32.98-5.96-8.86,0-16.7,1.13-23.52,3.38-6.83,2.25-12.53,5.37-17.11,9.34-4.58,3.98-8.07,8.75-10.47,14.3-2.4,5.55-3.6,11.63-3.6,18.23,0,7.06,1.24,12.94,3.72,17.67,2.48,4.73,5.77,8.67,9.9,11.82,4.12,3.15,8.81,5.74,14.07,7.77,5.26,2.03,10.62,3.79,16.1,5.29,5.48,1.5,10.84,2.97,16.09,4.39,5.25,1.43,9.94,3.15,14.07,5.18,4.12,2.03,7.43,4.54,9.9,7.54,2.48,3,3.71,6.83,3.71,11.48,0,2.4-.41,4.84-1.24,7.32-.83,2.48-2.33,4.65-4.5,6.53-2.18,1.88-5.06,3.42-8.67,4.61-3.6,1.2-8.1,1.8-13.51,1.8-8.56,0-16.21-1.43-22.96-4.28-6.75-2.85-13.21-6.9-19.36-12.15L0,418.16c3,2.86,6.53,5.67,10.58,8.44,4.06,2.78,8.59,5.26,13.62,7.43,5.03,2.18,10.54,3.91,16.54,5.18,6,1.27,12.53,1.91,19.59,1.91,9.6,0,17.9-1.24,24.88-3.71,6.98-2.48,12.75-5.85,17.33-10.13,4.58-4.28,7.99-9.38,10.24-15.31,2.25-5.93,3.38-12.27,3.38-19.02,0-7.5-1.24-13.88-3.71-19.14-2.48-5.25-5.78-9.64-9.9-13.17Z"/>
      <path class="cls-2" d="M223.31,340.49c-5.1-5.1-11.25-9.04-18.46-11.82-7.2-2.78-15.16-4.17-23.86-4.17s-16.62,1.39-23.75,4.17c-7.13,2.78-13.25,6.68-18.35,11.71-5.11,5.03-9.04,11.11-11.82,18.23-2.78,7.13-4.17,15.05-4.17,23.75s1.39,16.66,4.17,23.86c2.78,7.2,6.64,13.36,11.59,18.46,4.95,5.1,10.88,9.04,17.79,11.82,6.9,2.78,14.41,4.17,22.51,4.17s15.19-1.28,20.82-3.83c5.63-2.55,9.79-5.55,12.49-9v10.81h27.01v-55.83c0-8.7-1.39-16.66-4.16-23.86-2.78-7.2-6.72-13.35-11.82-18.46ZM203.84,407.13c-5.63,5.85-13.17,8.78-22.63,8.78s-17.03-2.92-22.73-8.78c-5.71-5.85-8.56-14.03-8.56-24.54s2.85-18.69,8.56-24.54c5.7-5.85,13.28-8.78,22.73-8.78s17,2.92,22.63,8.78c5.63,5.85,8.44,14.04,8.44,24.54s-2.81,18.69-8.44,24.54Z"/>
      <path class="cls-2" d="M420.96,340.38c-4.2-4.73-9.57-8.63-16.09-11.71-6.53-3.07-14.45-4.61-23.75-4.61s-16.92,1.54-22.85,4.61c-5.93,3.08-10.66,6.98-14.18,11.71-.44.6-.83,1.22-1.24,1.83-.41-.61-.79-1.23-1.24-1.83-3.53-4.73-8.26-8.63-14.19-11.71-5.93-3.07-13.55-4.61-22.85-4.61s-17.22,1.54-23.75,4.61c-6.53,3.08-11.9,6.98-16.09,11.71-4.2,4.73-7.24,9.87-9.12,15.42-1.88,5.55-2.81,10.81-2.81,15.76v67.08h27.01v-66.41c0-4.05.67-7.5,2.02-10.35,1.35-2.85,3.15-5.26,5.4-7.21,2.25-1.95,4.88-3.38,7.88-4.28,3-.9,6.15-1.35,9.46-1.35s6.45.45,9.46,1.35c3,.9,5.63,2.33,7.88,4.28,2.25,1.95,4.05,4.35,5.4,7.21,1.35,2.85,2.03,6.3,2.03,10.35v66.41h27.01v-66.41c0-4.05.68-7.5,2.03-10.35,1.35-2.85,3.15-5.26,5.4-7.21,2.25-1.95,4.87-3.38,7.88-4.28,3-.9,6.15-1.35,9.46-1.35s6.45.45,9.46,1.35c3,.9,5.63,2.33,7.88,4.28,2.25,1.95,4.05,4.35,5.4,7.21,1.35,2.85,2.02,6.3,2.02,10.35v66.41h27.01v-67.08c0-4.95-.94-10.2-2.81-15.76-1.88-5.55-4.92-10.69-9.12-15.42Z"/>
      <path class="cls-2" d="M543.42,340.49c-5.1-5.1-11.25-9.04-18.46-11.82-7.2-2.78-15.16-4.17-23.86-4.17s-16.62,1.39-23.75,4.17c-7.13,2.78-13.25,6.68-18.35,11.71-5.11,5.03-9.04,11.11-11.82,18.23-2.78,7.13-4.17,15.05-4.17,23.75s1.39,16.66,4.17,23.86c2.78,7.2,6.64,13.36,11.59,18.46,4.95,5.1,10.88,9.04,17.79,11.82,6.9,2.78,14.41,4.17,22.51,4.17s15.19-1.28,20.82-3.83c5.63-2.55,9.79-5.55,12.49-9v10.81h27.01v-55.83c0-8.7-1.39-16.66-4.16-23.86-2.78-7.2-6.72-13.35-11.82-18.46ZM523.95,407.13c-5.63,5.85-13.17,8.78-22.63,8.78s-17.03-2.92-22.73-8.78c-5.71-5.85-8.56-14.03-8.56-24.54s2.85-18.69,8.56-24.54c5.7-5.85,13.28-8.78,22.73-8.78s17,2.92,22.63,8.78c5.63,5.85,8.44,14.04,8.44,24.54s-2.81,18.69-8.44,24.54Z"/>
      <path class="cls-1" d="M586.42,278.59c-4.2,0-7.73,1.46-10.58,4.39-2.85,2.93-4.27,6.42-4.27,10.47,0,4.35,1.42,7.96,4.27,10.81,2.85,2.86,6.38,4.28,10.58,4.28s7.73-1.42,10.58-4.28c2.85-2.85,4.28-6.45,4.28-10.81,0-4.05-1.43-7.54-4.28-10.47-2.85-2.92-6.38-4.39-10.58-4.39Z"/>
      <rect class="cls-2" x="572.92" y="326.08" width="27.01" height="112.56"/>
      <path class="cls-2" d="M639.55,386.64v-35.79h25.67v-24.76h-25.67v-45.02h-27.01v105.81c0,17.41,4.76,30.65,14.29,39.73,9.53,9.08,23.6,13.62,42.21,13.62v-24.76c-10.66,0-18.23-2.22-22.74-6.64-4.5-4.42-6.75-11.82-6.75-22.17Z"/>
      <path class="cls-2" d="M784.86,358.95c-2.78-7.2-6.72-13.35-11.82-18.46-5.1-5.1-11.25-9.04-18.46-11.82-7.2-2.78-15.16-4.17-23.86-4.17s-16.62,1.39-23.75,4.17c-7.13,2.78-13.25,6.68-18.35,11.71-5.11,5.03-9.04,11.11-11.82,18.23-2.78,7.13-4.17,15.05-4.17,23.75s1.39,16.66,4.17,23.86c2.78,7.2,6.64,13.36,11.59,18.46,4.95,5.1,10.88,9.04,17.79,11.82,6.9,2.78,14.41,4.17,22.51,4.17s15.19-1.28,20.82-3.83c5.63-2.55,9.79-5.55,12.49-9v10.81h27.01v-55.83c0-8.7-1.39-16.66-4.16-23.86ZM753.57,407.13c-5.63,5.85-13.17,8.78-22.63,8.78s-17.03-2.92-22.73-8.78c-5.71-5.85-8.56-14.03-8.56-24.54s2.85-18.69,8.56-24.54c5.7-5.85,13.28-8.78,22.73-8.78s17,2.92,22.63,8.78c5.63,5.85,8.44,14.04,8.44,24.54s-2.81,18.69-8.44,24.54Z"/>
      <g>
        <path class="cls-2" d="M856.9,283.54h32.64l45.92,119.99,45.7-119.99h32.64v157.58h-28.14v-96.58l-36.47,95.67.23.9h-28.14l.23-.9-36.47-95.67v96.58h-28.14v-157.58Z"/>
        <path class="cls-2" d="M1082.23,418.38c11.41,0,19.89-4.05,25.44-12.15h29.49c-3.75,11.41-10.4,20.41-19.92,27.01-9.53,6.61-21.12,9.91-34.78,9.91-8.7,0-16.66-1.39-23.86-4.17-7.21-2.78-13.36-6.72-18.46-11.82-5.11-5.1-9.05-11.26-11.82-18.46-2.78-7.21-4.16-15.16-4.16-23.86s1.38-16.62,4.16-23.75c2.78-7.13,6.72-13.2,11.82-18.23,5.1-5.03,11.25-8.93,18.46-11.71,7.2-2.78,15.16-4.17,23.86-4.17s16.62,1.39,23.75,4.17c7.13,2.78,13.24,6.68,18.35,11.71,5.1,5.03,9.04,11.11,11.82,18.23,2.78,7.13,4.17,15.05,4.17,23.75,0,1.65-.04,3.19-.11,4.61-.08,1.43-.19,2.89-.34,4.39h-88.02c1.5,7.81,4.88,13.84,10.13,18.12,5.25,4.28,11.93,6.42,20.03,6.42ZM1110.6,369.08c-2.4-5.55-6.04-9.83-10.92-12.83-4.88-3-10.69-4.5-17.45-4.5s-12.53,1.5-17.33,4.5c-4.8,3.01-8.41,7.28-10.81,12.83h56.51Z"/>
        <path class="cls-2" d="M1266.38,283.54v101.53c0,9-1.54,17.11-4.61,24.31-3.08,7.2-7.24,13.28-12.5,18.23-5.26,4.95-11.48,8.74-18.68,11.37-7.21,2.63-14.94,3.94-23.19,3.94s-16.32-1.39-23.3-4.17c-6.98-2.78-13.02-6.72-18.12-11.82-5.11-5.1-9.05-11.18-11.82-18.23-2.78-7.05-4.16-14.93-4.16-23.64s1.38-16.66,4.16-23.86c2.78-7.2,6.64-13.35,11.59-18.46,4.95-5.1,10.88-9.04,17.79-11.82,6.9-2.78,14.41-4.17,22.51-4.17s15.01,1.28,20.71,3.83c5.7,2.55,9.9,5.55,12.61,9v-56.05h27.01ZM1177,384.84c0,10.51,2.82,18.69,8.44,24.54,5.63,5.85,13.17,8.78,22.62,8.78s17.03-2.92,22.74-8.78c5.7-5.85,8.56-14.03,8.56-24.54s-2.85-18.69-8.56-24.54c-5.7-5.85-13.28-8.78-22.74-8.78s-17,2.92-22.62,8.78-8.44,14.04-8.44,24.54Z"/>
        <path class="cls-2" d="M1278.54,295.92c0-4.05,1.42-7.54,4.27-10.47,2.85-2.92,6.38-4.39,10.58-4.39s7.73,1.46,10.58,4.39c2.85,2.93,4.28,6.42,4.28,10.47,0,4.35-1.43,7.96-4.28,10.81-2.85,2.86-6.38,4.28-10.58,4.28s-7.73-1.42-10.58-4.28c-2.85-2.85-4.27-6.45-4.27-10.81ZM1279.88,328.56h27.01v112.56h-27.01v-112.56Z"/>
        <path class="cls-2" d="M1373.98,326.98c8.7,0,16.66,1.39,23.86,4.17,7.21,2.78,13.36,6.72,18.46,11.82,5.1,5.11,9.04,11.26,11.82,18.46,2.78,7.2,4.16,15.16,4.16,23.86v55.83h-27.01v-10.81c-2.7,3.45-6.86,6.45-12.49,9-5.63,2.55-12.57,3.83-20.82,3.83s-15.61-1.39-22.51-4.17c-6.9-2.78-12.83-6.72-17.79-11.82-4.95-5.1-8.82-11.26-11.59-18.46-2.78-7.21-4.17-15.16-4.17-23.86s1.39-16.62,4.17-23.75c2.78-7.13,6.71-13.2,11.82-18.23,5.1-5.03,11.22-8.93,18.35-11.71,7.13-2.78,15.04-4.17,23.75-4.17ZM1405.27,385.07c0-10.5-2.81-18.69-8.44-24.54s-13.17-8.78-22.63-8.78-17.03,2.92-22.73,8.78c-5.71,5.85-8.56,14.04-8.56,24.54s2.85,18.69,8.56,24.54c5.7,5.85,13.28,8.78,22.73,8.78s17-2.92,22.63-8.78c5.63-5.85,8.44-14.03,8.44-24.54Z"/>
      </g>
    </g>
  </g>
</svg>