<?xml version="1.0" encoding="UTF-8"?>
<svg id="Layer_2" data-name="Layer 2" xmlns="http://www.w3.org/2000/svg" viewBox="0 0 332.51 332.51">
  <defs>
    <style>
      .cls-1 {
        fill: #fd1111;
      }

      .cls-1, .cls-2, .cls-3 {
        stroke-width: 0px;
      }

      .cls-3 {
        fill: #fff;
      }
    </style>
  </defs>
  <g id="Layer_1-2" data-name="Layer 1">
    <g>
      <circle class="cls-1" cx="166.25" cy="166.25" r="166.25"/>
      <g>
        <path class="cls-2" d="M132.22,166.9c-3.36-2.87-7.18-5.19-11.46-6.97-4.28-1.77-8.65-3.3-13.11-4.58-4.46-1.28-8.83-2.44-13.11-3.48-4.28-1.04-8.1-2.26-11.46-3.67-3.36-1.4-6.05-3.15-8.06-5.22-2.02-2.08-3.02-4.7-3.02-7.88,0-3.91,1.71-7.21,5.13-9.9,3.42-2.69,8.98-4.03,16.68-4.03,5.74,0,11.39.98,16.96,2.93,5.56,1.96,11.27,5.26,17.14,9.9l13.38-16.68c-5.86-5.01-12.8-9.14-20.81-12.38-8.01-3.24-16.95-4.86-26.85-4.86-7.21,0-13.6.92-19.15,2.75-5.56,1.83-10.21,4.37-13.93,7.61-3.73,3.24-6.57,7.12-8.52,11.64-1.96,4.52-2.93,9.47-2.93,14.85,0,5.75,1.01,10.54,3.03,14.39,2.02,3.85,4.7,7.06,8.06,9.63,3.36,2.57,7.18,4.67,11.45,6.32,4.28,1.65,8.65,3.09,13.11,4.31,4.46,1.22,8.83,2.42,13.11,3.57,4.28,1.16,8.09,2.57,11.46,4.22,3.36,1.65,6.05,3.7,8.06,6.14,2.02,2.44,3.02,5.56,3.02,9.35,0,1.96-.34,3.94-1.01,5.96-.67,2.02-1.9,3.79-3.67,5.32-1.77,1.53-4.12,2.78-7.06,3.76-2.93.98-6.6,1.47-11,1.47-6.97,0-13.2-1.16-18.7-3.48-5.5-2.32-10.76-5.62-15.76-9.9l-14.48,15.76c2.44,2.33,5.32,4.62,8.61,6.88,3.3,2.26,6.99,4.28,11.09,6.05,4.09,1.77,8.58,3.18,13.47,4.22,4.89,1.04,10.2,1.56,15.95,1.56,7.82,0,14.57-1.01,20.26-3.02,5.68-2.02,10.38-4.77,14.11-8.25,3.73-3.48,6.51-7.63,8.34-12.47,1.84-4.83,2.75-9.99,2.75-15.49,0-6.11-1.01-11.3-3.02-15.58-2.02-4.28-4.7-7.85-8.06-10.72Z"/>
        <path class="cls-3" d="M156.01,102.1h26.58l37.39,97.7,37.21-97.7h26.58v128.31h-22.92v-78.64l-29.69,77.91.18.73h-22.92l.18-.73-29.7-77.91v78.64h-22.91V102.1Z"/>
      </g>
    </g>
  </g>
</svg>