<?xml version="1.0" encoding="UTF-8"?>
<svg id="Layer_2" data-name="Layer 2" xmlns="http://www.w3.org/2000/svg" viewBox="0 0 332.51 332.51">
  <defs>
    <style>
      .cls-1 {
        fill: #fd1111;
      }

      .cls-1, .cls-2, .cls-3 {
        stroke-width: 0px;
      }

      .cls-3 {
        fill: #fff;
      }
    </style>
  </defs>
  <g id="Layer_1-2" data-name="Layer 1">
    <g>
      <circle class="cls-1" cx="166.25" cy="166.25" r="166.25"/>
      <g>
        <g>
          <path class="cls-3" d="M227.06,100.26c-1.33,0-2.45.46-3.35,1.39-.9.93-1.35,2.03-1.35,3.32,0,1.38.45,2.52,1.35,3.42.9.9,2.02,1.36,3.35,1.36s2.45-.45,3.35-1.36c.9-.9,1.36-2.04,1.36-3.42,0-1.28-.45-2.39-1.36-3.32-.9-.93-2.02-1.39-3.35-1.39Z"/>
          <g>
            <path class="cls-2" d="M73.74,126.26c-1.31-1.12-2.79-2.02-4.46-2.71-1.67-.69-3.36-1.28-5.1-1.78-1.74-.5-3.44-.95-5.1-1.35-1.67-.4-3.15-.88-4.46-1.43-1.31-.55-2.35-1.22-3.14-2.03-.78-.81-1.18-1.83-1.18-3.07,0-1.52.67-2.81,2-3.85,1.33-1.05,3.5-1.57,6.49-1.57,2.23,0,4.43.38,6.6,1.14,2.16.76,4.39,2.05,6.67,3.85l5.21-6.49c-2.28-1.95-4.98-3.55-8.1-4.82-3.12-1.26-6.6-1.89-10.45-1.89-2.81,0-5.29.36-7.45,1.07-2.16.71-3.97,1.7-5.42,2.96-1.45,1.26-2.56,2.77-3.32,4.53-.76,1.76-1.14,3.68-1.14,5.78,0,2.24.39,4.1,1.18,5.6.78,1.5,1.83,2.75,3.14,3.75,1.31,1,2.79,1.82,4.46,2.46s3.36,1.2,5.1,1.68c1.74.48,3.43.94,5.1,1.39,1.66.45,3.15,1,4.46,1.64,1.31.64,2.35,1.44,3.14,2.39s1.18,2.16,1.18,3.64c0,.76-.13,1.53-.39,2.32-.26.78-.74,1.47-1.43,2.07-.69.6-1.6,1.08-2.75,1.46-1.14.38-2.57.57-4.28.57-2.71,0-5.13-.45-7.27-1.36-2.14-.9-4.19-2.19-6.13-3.85l-5.64,6.13c.95.9,2.07,1.8,3.35,2.68,1.28.88,2.72,1.67,4.32,2.35,1.59.69,3.34,1.24,5.24,1.64s3.97.61,6.21.61c3.04,0,5.67-.39,7.88-1.18,2.21-.78,4.04-1.85,5.49-3.21,1.45-1.36,2.53-2.97,3.25-4.85.71-1.88,1.07-3.89,1.07-6.03,0-2.38-.39-4.4-1.18-6.06-.78-1.66-1.83-3.05-3.14-4.17Z"/>
            <path class="cls-2" d="M112.01,119.87c-1.62-1.62-3.57-2.86-5.85-3.74-2.28-.88-4.8-1.32-7.56-1.32s-5.27.44-7.53,1.32c-2.26.88-4.2,2.12-5.81,3.71-1.62,1.59-2.87,3.52-3.74,5.78-.88,2.26-1.32,4.77-1.32,7.53s.44,5.28,1.32,7.56c.88,2.28,2.1,4.23,3.67,5.85s3.45,2.87,5.64,3.74c2.19.88,4.57,1.32,7.13,1.32s4.81-.41,6.6-1.21c1.78-.81,3.1-1.76,3.96-2.85v3.42h8.56v-17.69c0-2.76-.44-5.28-1.32-7.56-.88-2.28-2.13-4.23-3.75-5.85ZM105.84,140.99c-1.78,1.85-4.17,2.78-7.17,2.78s-5.4-.93-7.2-2.78c-1.81-1.85-2.71-4.45-2.71-7.78s.9-5.92,2.71-7.78c1.81-1.85,4.21-2.78,7.2-2.78s5.39.93,7.17,2.78c1.78,1.85,2.67,4.45,2.67,7.78s-.89,5.92-2.67,7.78Z"/>
            <path class="cls-2" d="M174.64,119.84c-1.33-1.5-3.03-2.73-5.1-3.71-2.07-.97-4.58-1.46-7.53-1.46s-5.36.49-7.24,1.46c-1.88.98-3.38,2.21-4.49,3.71-.14.19-.26.39-.39.58-.13-.19-.25-.39-.39-.58-1.12-1.5-2.62-2.73-4.49-3.71-1.88-.97-4.29-1.46-7.24-1.46s-5.46.49-7.53,1.46c-2.07.98-3.77,2.21-5.1,3.71-1.33,1.5-2.3,3.13-2.89,4.89-.6,1.76-.89,3.42-.89,4.99v21.26h8.56v-21.04c0-1.28.21-2.38.64-3.28.43-.9,1-1.67,1.71-2.28.71-.62,1.54-1.07,2.5-1.36s1.95-.43,3-.43,2.04.14,3,.43c.95.29,1.78.74,2.5,1.36.71.62,1.28,1.38,1.71,2.28s.64,2,.64,3.28v21.04h8.56v-21.04c0-1.28.21-2.38.64-3.28s1-1.67,1.71-2.28c.71-.62,1.54-1.07,2.5-1.36.95-.29,1.95-.43,3-.43s2.04.14,3,.43c.95.29,1.78.74,2.5,1.36.71.62,1.28,1.38,1.71,2.28.43.9.64,2,.64,3.28v21.04h8.56v-21.26c0-1.57-.3-3.23-.89-4.99-.6-1.76-1.56-3.39-2.89-4.89Z"/>
            <path class="cls-2" d="M213.44,119.87c-1.62-1.62-3.57-2.86-5.85-3.74-2.28-.88-4.8-1.32-7.56-1.32s-5.27.44-7.53,1.32c-2.26.88-4.2,2.12-5.81,3.71-1.62,1.59-2.87,3.52-3.74,5.78-.88,2.26-1.32,4.77-1.32,7.53s.44,5.28,1.32,7.56c.88,2.28,2.1,4.23,3.67,5.85,1.57,1.62,3.45,2.87,5.64,3.74,2.19.88,4.57,1.32,7.13,1.32s4.81-.41,6.6-1.21c1.78-.81,3.1-1.76,3.96-2.85v3.42h8.56v-17.69c0-2.76-.44-5.28-1.32-7.56-.88-2.28-2.13-4.23-3.75-5.85ZM207.27,140.99c-1.78,1.85-4.17,2.78-7.17,2.78s-5.4-.93-7.2-2.78c-1.81-1.85-2.71-4.45-2.71-7.78s.9-5.92,2.71-7.78c1.81-1.85,4.21-2.78,7.2-2.78s5.39.93,7.17,2.78,2.67,4.45,2.67,7.78-.89,5.92-2.67,7.78Z"/>
            <rect class="cls-2" x="222.78" y="115.31" width="8.56" height="35.67"/>
            <path class="cls-2" d="M243.9,134.5v-11.34h8.13v-7.85h-8.13v-14.27h-8.56v33.53c0,5.52,1.51,9.71,4.53,12.59,3.02,2.88,7.48,4.32,13.37,4.32v-7.85c-3.38,0-5.78-.7-7.2-2.1-1.43-1.4-2.14-3.74-2.14-7.03Z"/>
            <path class="cls-2" d="M289.94,125.72c-.88-2.28-2.13-4.23-3.75-5.85-1.62-1.62-3.57-2.86-5.85-3.74-2.28-.88-4.8-1.32-7.56-1.32s-5.27.44-7.53,1.32c-2.26.88-4.2,2.12-5.81,3.71-1.62,1.59-2.87,3.52-3.74,5.78-.88,2.26-1.32,4.77-1.32,7.53s.44,5.28,1.32,7.56c.88,2.28,2.1,4.23,3.67,5.85s3.45,2.87,5.64,3.74c2.19.88,4.57,1.32,7.13,1.32s4.81-.41,6.6-1.21c1.78-.81,3.1-1.76,3.96-2.85v3.42h8.56v-17.69c0-2.76-.44-5.28-1.32-7.56ZM280.02,140.99c-1.78,1.85-4.17,2.78-7.17,2.78s-5.4-.93-7.2-2.78c-1.81-1.85-2.71-4.45-2.71-7.78s.9-5.92,2.71-7.78c1.81-1.85,4.21-2.78,7.2-2.78s5.39.93,7.17,2.78c1.78,1.85,2.67,4.45,2.67,7.78s-.89,5.92-2.67,7.78Z"/>
          </g>
        </g>
        <g>
          <path class="cls-3" d="M37.47,160.8h14.61l20.56,53.71,20.46-53.71h14.61v70.54h-12.6v-43.23l-16.32,42.83.1.4h-12.6l.1-.4-16.33-42.83v43.23h-12.6v-70.54Z"/>
          <path class="cls-3" d="M138.34,221.17c5.11,0,8.9-1.81,11.39-5.44h13.2c-1.68,5.11-4.65,9.14-8.92,12.09-4.27,2.96-9.46,4.44-15.57,4.44-3.9,0-7.46-.62-10.68-1.87-3.23-1.24-5.98-3.01-8.26-5.29-2.29-2.28-4.05-5.04-5.29-8.26-1.24-3.23-1.86-6.79-1.86-10.68s.62-7.44,1.86-10.63c1.24-3.19,3.01-5.91,5.29-8.16,2.28-2.25,5.04-4,8.26-5.24,3.22-1.24,6.78-1.87,10.68-1.87s7.44.62,10.63,1.87c3.19,1.24,5.93,2.99,8.21,5.24,2.28,2.25,4.05,4.97,5.29,8.16,1.24,3.19,1.87,6.74,1.87,10.63,0,.74-.02,1.43-.05,2.07-.04.64-.09,1.29-.15,1.96h-39.4c.67,3.5,2.18,6.2,4.53,8.11,2.35,1.91,5.34,2.87,8.97,2.87ZM151.04,199.1c-1.08-2.48-2.71-4.4-4.89-5.74-2.18-1.34-4.79-2.01-7.81-2.01s-5.61.67-7.76,2.01c-2.15,1.35-3.76,3.26-4.84,5.74h25.3Z"/>
          <path class="cls-3" d="M220.77,160.8v45.45c0,4.03-.69,7.66-2.07,10.88-1.38,3.22-3.24,5.95-5.59,8.16-2.35,2.22-5.14,3.91-8.36,5.09-3.23,1.18-6.69,1.76-10.38,1.76s-7.31-.62-10.43-1.87c-3.12-1.24-5.83-3.01-8.11-5.29-2.29-2.28-4.05-5-5.29-8.16-1.24-3.16-1.86-6.68-1.86-10.58s.62-7.46,1.86-10.68c1.24-3.22,2.97-5.98,5.19-8.26,2.22-2.28,4.87-4.05,7.96-5.29,3.09-1.24,6.45-1.87,10.08-1.87s6.72.57,9.27,1.71c2.55,1.14,4.43,2.49,5.64,4.03v-25.09h12.09ZM180.76,206.15c0,4.7,1.26,8.36,3.78,10.98,2.52,2.62,5.9,3.93,10.13,3.93s7.63-1.31,10.18-3.93,3.83-6.28,3.83-10.98-1.28-8.36-3.83-10.98-5.95-3.93-10.18-3.93-7.61,1.31-10.13,3.93c-2.52,2.62-3.78,6.28-3.78,10.98Z"/>
          <path class="cls-3" d="M226.21,166.34c0-1.81.64-3.38,1.91-4.69,1.28-1.31,2.86-1.96,4.74-1.96s3.46.66,4.74,1.96c1.28,1.31,1.91,2.87,1.91,4.69,0,1.95-.64,3.56-1.91,4.84-1.28,1.28-2.86,1.91-4.74,1.91s-3.46-.64-4.74-1.91c-1.28-1.27-1.91-2.89-1.91-4.84ZM226.82,180.96h12.09v50.39h-12.09v-50.39Z"/>
          <path class="cls-3" d="M268.94,180.25c3.89,0,7.46.62,10.68,1.87,3.23,1.24,5.98,3.01,8.26,5.29,2.28,2.29,4.05,5.04,5.29,8.26,1.24,3.22,1.86,6.79,1.86,10.68v24.99h-12.09v-4.84c-1.21,1.55-3.07,2.89-5.59,4.03-2.52,1.14-5.63,1.71-9.32,1.71s-6.99-.62-10.08-1.87c-3.09-1.24-5.74-3.01-7.96-5.29-2.22-2.28-3.95-5.04-5.19-8.26-1.24-3.23-1.87-6.79-1.87-10.68s.62-7.44,1.87-10.63c1.24-3.19,3-5.91,5.29-8.16,2.28-2.25,5.02-4,8.21-5.24,3.19-1.24,6.73-1.87,10.63-1.87ZM282.95,206.25c0-4.7-1.26-8.36-3.78-10.98-2.52-2.62-5.9-3.93-10.13-3.93s-7.63,1.31-10.18,3.93c-2.55,2.62-3.83,6.28-3.83,10.98s1.27,8.36,3.83,10.98c2.55,2.62,5.95,3.93,10.18,3.93s7.61-1.31,10.13-3.93,3.78-6.28,3.78-10.98Z"/>
        </g>
      </g>
    </g>
  </g>
</svg>